999
"DXF R12 Output" (www.mydxf.blogspot.com)
 0 
SECTION
 2 
HEADER
 9 
$ACADVER
 1 
AC1009
 9 
$EXTMIN
 10 
 0 
 20 
 0 
 9 
$EXTMAX
 10 
 8.5 
 20 
 11 
 0 
ENDSEC
 0 
SECTION
 2 
ENTITIES
0
LINE
8
Layer 1
10
0.793749
20
297.793749
11
-0.793749
21
296.206251
0
LINE
8
Layer 1
10
0.000000
20
298.322915
11
0.000000
21
295.677085
0
LINE
8
Layer 1
10
2.116664
20
295.941668
11
1.058332
21
294.883336
0
LINE
8
Layer 1
10
1.587498
20
296.470834
11
0.529166
21
295.412502
0
LINE
8
Layer 1
10
1.058332
20
297.000000
11
0.000000
21
295.941668
0
LINE
8
front_outsideCutPath
10
0.000000
20
62.652751
11
0.000000
21
48.209695
0
LINE
8
front_outsideCutPath
10
0.000000
20
48.209695
11
4.825994
21
48.209695
0
LINE
8
front_outsideCutPath
10
4.825994
20
48.209695
11
4.825994
21
37.954458
0
LINE
8
front_outsideCutPath
10
4.825994
20
37.954458
11
0.000000
21
37.954458
0
LINE
8
front_outsideCutPath
10
0.000000
20
37.954458
11
0.000000
21
27.699485
0
LINE
8
front_outsideCutPath
10
0.000000
20
27.699485
11
4.825994
21
27.699485
0
LINE
8
front_outsideCutPath
10
4.825994
20
27.699485
11
4.825994
21
17.444248
0
LINE
8
front_outsideCutPath
10
4.825994
20
17.444248
11
0.000000
21
17.444248
0
LINE
8
front_outsideCutPath
10
0.000000
20
17.444248
11
0.000000
21
7.189011
0
LINE
8
front_outsideCutPath
10
0.000000
20
7.189011
11
0.000000
21
3.000662
0
LINE
8
front_outsideCutPath
10
0.000000
20
3.000662
11
9.677361
21
3.000662
0
LINE
8
front_outsideCutPath
10
9.677361
20
3.000662
11
9.677361
21
7.826656
0
LINE
8
front_outsideCutPath
10
9.677361
20
7.826656
11
19.932546
21
7.826656
0
LINE
8
front_outsideCutPath
10
19.932546
20
7.826656
11
19.932546
21
3.000662
0
LINE
8
front_outsideCutPath
10
19.932546
20
3.000662
11
30.187862
21
3.000662
0
LINE
8
front_outsideCutPath
10
30.187862
20
3.000662
11
30.187862
21
7.826656
0
LINE
8
front_outsideCutPath
10
30.187862
20
7.826656
11
40.443099
21
7.826656
0
LINE
8
front_outsideCutPath
10
40.443099
20
7.826656
11
40.443099
21
3.000662
0
LINE
8
front_outsideCutPath
10
40.443099
20
3.000662
11
50.698336
21
3.000662
0
LINE
8
front_outsideCutPath
10
50.698336
20
3.000662
11
50.698336
21
7.826656
0
LINE
8
front_outsideCutPath
10
50.698336
20
7.826656
11
60.953573
21
7.826656
0
LINE
8
front_outsideCutPath
10
60.953573
20
7.826656
11
60.953573
21
3.000662
0
LINE
8
front_outsideCutPath
10
60.953573
20
3.000662
11
71.208810
21
3.000662
0
LINE
8
front_outsideCutPath
10
71.208810
20
3.000662
11
71.208810
21
7.826656
0
LINE
8
front_outsideCutPath
10
71.208810
20
7.826656
11
81.464047
21
7.826656
0
LINE
8
front_outsideCutPath
10
81.464047
20
7.826656
11
81.464047
21
3.000662
0
LINE
8
front_outsideCutPath
10
81.464047
20
3.000662
11
91.719284
21
3.000662
0
LINE
8
front_outsideCutPath
10
91.719284
20
3.000662
11
91.719284
21
7.826656
0
LINE
8
front_outsideCutPath
10
91.719284
20
7.826656
11
101.974522
21
7.826656
0
LINE
8
front_outsideCutPath
10
101.974522
20
7.826656
11
101.974522
21
3.000662
0
LINE
8
front_outsideCutPath
10
101.974522
20
3.000662
11
111.651380
21
3.000662
0
LINE
8
front_outsideCutPath
10
111.651380
20
3.000662
11
111.651380
21
17.444248
0
LINE
8
front_outsideCutPath
10
111.651380
20
17.444248
11
106.825386
21
17.444248
0
LINE
8
front_outsideCutPath
10
106.825386
20
17.444248
11
106.825386
21
27.699485
0
LINE
8
front_outsideCutPath
10
106.825386
20
27.699485
11
111.651380
21
27.699485
0
LINE
8
front_outsideCutPath
10
111.651380
20
27.699485
11
111.651380
21
37.954458
0
LINE
8
front_outsideCutPath
10
111.651380
20
37.954458
11
106.825386
21
37.954458
0
LINE
8
front_outsideCutPath
10
106.825386
20
37.954458
11
106.825386
21
48.209695
0
LINE
8
front_outsideCutPath
10
106.825386
20
48.209695
11
111.651380
21
48.209695
0
LINE
8
front_outsideCutPath
10
111.651380
20
48.209695
11
111.651380
21
58.464932
0
LINE
8
front_outsideCutPath
10
111.651380
20
58.464932
11
111.651380
21
62.652751
0
LINE
8
front_outsideCutPath
10
111.651380
20
62.652751
11
101.974522
21
62.652751
0
LINE
8
front_outsideCutPath
10
101.974522
20
62.652751
11
101.974522
21
57.826758
0
LINE
8
front_outsideCutPath
10
101.974522
20
57.826758
11
91.719284
21
57.826758
0
LINE
8
front_outsideCutPath
10
91.719284
20
57.826758
11
91.719284
21
62.652751
0
LINE
8
front_outsideCutPath
10
91.719284
20
62.652751
11
81.464047
21
62.652751
0
LINE
8
front_outsideCutPath
10
81.464047
20
62.652751
11
81.464047
21
57.826758
0
LINE
8
front_outsideCutPath
10
81.464047
20
57.826758
11
71.208810
21
57.826758
0
LINE
8
front_outsideCutPath
10
71.208810
20
57.826758
11
71.208810
21
62.652751
0
LINE
8
front_outsideCutPath
10
71.208810
20
62.652751
11
60.953573
21
62.652751
0
LINE
8
front_outsideCutPath
10
60.953573
20
62.652751
11
60.953573
21
57.826758
0
LINE
8
front_outsideCutPath
10
60.953573
20
57.826758
11
50.698336
21
57.826758
0
LINE
8
front_outsideCutPath
10
50.698336
20
57.826758
11
50.698336
21
62.652751
0
LINE
8
front_outsideCutPath
10
50.698336
20
62.652751
11
40.443099
21
62.652751
0
LINE
8
front_outsideCutPath
10
40.443099
20
62.652751
11
40.443099
21
57.826758
0
LINE
8
front_outsideCutPath
10
40.443099
20
57.826758
11
30.187862
21
57.826758
0
LINE
8
front_outsideCutPath
10
30.187862
20
57.826758
11
30.187862
21
62.652751
0
LINE
8
front_outsideCutPath
10
30.187862
20
62.652751
11
19.932546
21
62.652751
0
LINE
8
front_outsideCutPath
10
19.932546
20
62.652751
11
19.932546
21
57.826758
0
LINE
8
front_outsideCutPath
10
19.932546
20
57.826758
11
9.677361
21
57.826758
0
LINE
8
front_outsideCutPath
10
9.677361
20
57.826758
11
9.677361
21
62.652751
0
LINE
8
front_outsideCutPath
10
9.677361
20
62.652751
11
0.000000
21
62.652751
0
LINE
8
left_outsideCutPath
10
119.477216
20
62.652751
11
119.477216
21
48.209695
0
LINE
8
left_outsideCutPath
10
119.477216
20
48.209695
11
114.651222
21
48.209695
0
LINE
8
left_outsideCutPath
10
114.651222
20
48.209695
11
114.651222
21
37.954458
0
LINE
8
left_outsideCutPath
10
114.651222
20
37.954458
11
119.477216
21
37.954458
0
LINE
8
left_outsideCutPath
10
119.477216
20
37.954458
11
119.477216
21
27.699485
0
LINE
8
left_outsideCutPath
10
119.477216
20
27.699485
11
114.651222
21
27.699485
0
LINE
8
left_outsideCutPath
10
114.651222
20
27.699485
11
114.651222
21
17.444248
0
LINE
8
left_outsideCutPath
10
114.651222
20
17.444248
11
119.477216
21
17.444248
0
LINE
8
left_outsideCutPath
10
119.477216
20
17.444248
11
119.477216
21
7.189011
0
LINE
8
left_outsideCutPath
10
119.477216
20
7.189011
11
119.477216
21
3.000662
0
LINE
8
left_outsideCutPath
10
119.477216
20
3.000662
11
131.318099
21
3.000662
0
LINE
8
left_outsideCutPath
10
131.318099
20
3.000662
11
131.318099
21
7.826656
0
LINE
8
left_outsideCutPath
10
131.318099
20
7.826656
11
141.573336
21
7.826656
0
LINE
8
left_outsideCutPath
10
141.573336
20
7.826656
11
141.573336
21
3.000662
0
LINE
8
left_outsideCutPath
10
141.573336
20
3.000662
11
151.828573
21
3.000662
0
LINE
8
left_outsideCutPath
10
151.828573
20
3.000662
11
151.828573
21
7.826656
0
LINE
8
left_outsideCutPath
10
151.828573
20
7.826656
11
162.083810
21
7.826656
0
LINE
8
left_outsideCutPath
10
162.083810
20
7.826656
11
162.083810
21
3.000662
0
LINE
8
left_outsideCutPath
10
162.083810
20
3.000662
11
172.339047
21
3.000662
0
LINE
8
left_outsideCutPath
10
172.339047
20
3.000662
11
172.339047
21
7.826656
0
LINE
8
left_outsideCutPath
10
172.339047
20
7.826656
11
182.594285
21
7.826656
0
LINE
8
left_outsideCutPath
10
182.594285
20
7.826656
11
182.594285
21
3.000662
0
LINE
8
left_outsideCutPath
10
182.594285
20
3.000662
11
192.849522
21
3.000662
0
LINE
8
left_outsideCutPath
10
192.849522
20
3.000662
11
192.849522
21
7.826656
0
LINE
8
left_outsideCutPath
10
192.849522
20
7.826656
11
203.104759
21
7.826656
0
LINE
8
left_outsideCutPath
10
203.104759
20
7.826656
11
203.104759
21
3.000662
0
LINE
8
left_outsideCutPath
10
203.104759
20
3.000662
11
213.359996
21
3.000662
0
LINE
8
left_outsideCutPath
10
213.359996
20
3.000662
11
213.359996
21
7.826656
0
LINE
8
left_outsideCutPath
10
213.359996
20
7.826656
11
223.615233
21
7.826656
0
LINE
8
left_outsideCutPath
10
223.615233
20
7.826656
11
223.615233
21
3.000662
0
LINE
8
left_outsideCutPath
10
223.615233
20
3.000662
11
233.870470
21
3.000662
0
LINE
8
left_outsideCutPath
10
233.870470
20
3.000662
11
233.870470
21
7.826656
0
LINE
8
left_outsideCutPath
10
233.870470
20
7.826656
11
244.125707
21
7.826656
0
LINE
8
left_outsideCutPath
10
244.125707
20
7.826656
11
244.125707
21
3.000662
0
LINE
8
left_outsideCutPath
10
244.125707
20
3.000662
11
254.380944
21
3.000662
0
LINE
8
left_outsideCutPath
10
254.380944
20
3.000662
11
254.380944
21
7.826656
0
LINE
8
left_outsideCutPath
10
254.380944
20
7.826656
11
264.635917
21
7.826656
0
LINE
8
left_outsideCutPath
10
264.635917
20
7.826656
11
264.635917
21
3.000662
0
LINE
8
left_outsideCutPath
10
264.635917
20
3.000662
11
274.891154
21
3.000662
0
LINE
8
left_outsideCutPath
10
274.891154
20
3.000662
11
276.478652
21
3.000662
0
LINE
8
left_outsideCutPath
10
276.478652
20
3.000662
11
276.478652
21
17.444248
0
LINE
8
left_outsideCutPath
10
276.478652
20
17.444248
11
281.304646
21
17.444248
0
LINE
8
left_outsideCutPath
10
281.304646
20
17.444248
11
281.304646
21
27.699485
0
LINE
8
left_outsideCutPath
10
281.304646
20
27.699485
11
276.478652
21
27.699485
0
LINE
8
left_outsideCutPath
10
276.478652
20
27.699485
11
276.478652
21
37.954458
0
LINE
8
left_outsideCutPath
10
276.478652
20
37.954458
11
281.304646
21
37.954458
0
LINE
8
left_outsideCutPath
10
281.304646
20
37.954458
11
281.304646
21
48.209695
0
LINE
8
left_outsideCutPath
10
281.304646
20
48.209695
11
276.478652
21
48.209695
0
LINE
8
left_outsideCutPath
10
276.478652
20
48.209695
11
276.478652
21
58.464932
0
LINE
8
left_outsideCutPath
10
276.478652
20
58.464932
11
276.478652
21
62.652751
0
LINE
8
left_outsideCutPath
10
276.478652
20
62.652751
11
264.635917
21
62.652751
0
LINE
8
left_outsideCutPath
10
264.635917
20
62.652751
11
264.635917
21
57.826758
0
LINE
8
left_outsideCutPath
10
264.635917
20
57.826758
11
254.380944
21
57.826758
0
LINE
8
left_outsideCutPath
10
254.380944
20
57.826758
11
254.380944
21
62.652751
0
LINE
8
left_outsideCutPath
10
254.380944
20
62.652751
11
244.125707
21
62.652751
0
LINE
8
left_outsideCutPath
10
244.125707
20
62.652751
11
244.125707
21
57.826758
0
LINE
8
left_outsideCutPath
10
244.125707
20
57.826758
11
233.870470
21
57.826758
0
LINE
8
left_outsideCutPath
10
233.870470
20
57.826758
11
233.870470
21
62.652751
0
LINE
8
left_outsideCutPath
10
233.870470
20
62.652751
11
223.615233
21
62.652751
0
LINE
8
left_outsideCutPath
10
223.615233
20
62.652751
11
223.615233
21
57.826758
0
LINE
8
left_outsideCutPath
10
223.615233
20
57.826758
11
213.359996
21
57.826758
0
LINE
8
left_outsideCutPath
10
213.359996
20
57.826758
11
213.359996
21
62.652751
0
LINE
8
left_outsideCutPath
10
213.359996
20
62.652751
11
203.104759
21
62.652751
0
LINE
8
left_outsideCutPath
10
203.104759
20
62.652751
11
203.104759
21
57.826758
0
LINE
8
left_outsideCutPath
10
203.104759
20
57.826758
11
192.849522
21
57.826758
0
LINE
8
left_outsideCutPath
10
192.849522
20
57.826758
11
192.849522
21
62.652751
0
LINE
8
left_outsideCutPath
10
192.849522
20
62.652751
11
182.594285
21
62.652751
0
LINE
8
left_outsideCutPath
10
182.594285
20
62.652751
11
182.594285
21
57.826758
0
LINE
8
left_outsideCutPath
10
182.594285
20
57.826758
11
172.339047
21
57.826758
0
LINE
8
left_outsideCutPath
10
172.339047
20
57.826758
11
172.339047
21
62.652751
0
LINE
8
left_outsideCutPath
10
172.339047
20
62.652751
11
162.083810
21
62.652751
0
LINE
8
left_outsideCutPath
10
162.083810
20
62.652751
11
162.083810
21
57.826758
0
LINE
8
left_outsideCutPath
10
162.083810
20
57.826758
11
151.828573
21
57.826758
0
LINE
8
left_outsideCutPath
10
151.828573
20
57.826758
11
151.828573
21
62.652751
0
LINE
8
left_outsideCutPath
10
151.828573
20
62.652751
11
141.573336
21
62.652751
0
LINE
8
left_outsideCutPath
10
141.573336
20
62.652751
11
141.573336
21
57.826758
0
LINE
8
left_outsideCutPath
10
141.573336
20
57.826758
11
131.318099
21
57.826758
0
LINE
8
left_outsideCutPath
10
131.318099
20
57.826758
11
131.318099
21
62.652751
0
LINE
8
left_outsideCutPath
10
131.318099
20
62.652751
11
121.062862
21
62.652751
0
LINE
8
left_outsideCutPath
10
121.062862
20
62.652751
11
119.477216
21
62.652751
0
LINE
8
top_outsideCutPath
10
289.128365
20
164.826769
11
289.128365
21
152.985886
0
LINE
8
top_outsideCutPath
10
289.128365
20
152.985886
11
284.302371
21
152.985886
0
LINE
8
top_outsideCutPath
10
284.302371
20
152.985886
11
284.302371
21
142.730649
0
LINE
8
top_outsideCutPath
10
284.302371
20
142.730649
11
289.128365
21
142.730649
0
LINE
8
top_outsideCutPath
10
289.128365
20
142.730649
11
289.128365
21
132.475411
0
LINE
8
top_outsideCutPath
10
289.128365
20
132.475411
11
284.302371
21
132.475411
0
LINE
8
top_outsideCutPath
10
284.302371
20
132.475411
11
284.302371
21
122.220174
0
LINE
8
top_outsideCutPath
10
284.302371
20
122.220174
11
289.128365
21
122.220174
0
LINE
8
top_outsideCutPath
10
289.128365
20
122.220174
11
289.128365
21
111.964937
0
LINE
8
top_outsideCutPath
10
289.128365
20
111.964937
11
284.302371
21
111.964937
0
LINE
8
top_outsideCutPath
10
284.302371
20
111.964937
11
284.302371
21
101.709700
0
LINE
8
top_outsideCutPath
10
284.302371
20
101.709700
11
289.128365
21
101.709700
0
LINE
8
top_outsideCutPath
10
289.128365
20
101.709700
11
289.128365
21
91.454463
0
LINE
8
top_outsideCutPath
10
289.128365
20
91.454463
11
284.302371
21
91.454463
0
LINE
8
top_outsideCutPath
10
284.302371
20
91.454463
11
284.302371
21
81.199226
0
LINE
8
top_outsideCutPath
10
284.302371
20
81.199226
11
289.128365
21
81.199226
0
LINE
8
top_outsideCutPath
10
289.128365
20
81.199226
11
289.128365
21
70.943989
0
LINE
8
top_outsideCutPath
10
289.128365
20
70.943989
11
284.302371
21
70.943989
0
LINE
8
top_outsideCutPath
10
284.302371
20
70.943989
11
284.302371
21
60.688752
0
LINE
8
top_outsideCutPath
10
284.302371
20
60.688752
11
289.128365
21
60.688752
0
LINE
8
top_outsideCutPath
10
289.128365
20
60.688752
11
289.128365
21
50.433515
0
LINE
8
top_outsideCutPath
10
289.128365
20
50.433515
11
284.302371
21
50.433515
0
LINE
8
top_outsideCutPath
10
284.302371
20
50.433515
11
284.302371
21
40.178278
0
LINE
8
top_outsideCutPath
10
284.302371
20
40.178278
11
289.128365
21
40.178278
0
LINE
8
top_outsideCutPath
10
289.128365
20
40.178278
11
289.128365
21
29.921982
0
LINE
8
top_outsideCutPath
10
289.128365
20
29.921982
11
284.302371
21
29.921982
0
LINE
8
top_outsideCutPath
10
284.302371
20
29.921982
11
284.302371
21
19.666745
0
LINE
8
top_outsideCutPath
10
284.302371
20
19.666745
11
289.128365
21
19.666745
0
LINE
8
top_outsideCutPath
10
289.128365
20
19.666745
11
289.128365
21
9.411508
0
LINE
8
top_outsideCutPath
10
289.128365
20
9.411508
11
289.128365
21
7.826656
0
LINE
8
top_outsideCutPath
10
289.128365
20
7.826656
11
293.980817
21
7.826656
0
LINE
8
top_outsideCutPath
10
293.980817
20
7.826656
11
293.980817
21
3.000662
0
LINE
8
top_outsideCutPath
10
293.980817
20
3.000662
11
304.236054
21
3.000662
0
LINE
8
top_outsideCutPath
10
304.236054
20
3.000662
11
304.236054
21
7.826656
0
LINE
8
top_outsideCutPath
10
304.236054
20
7.826656
11
314.491291
21
7.826656
0
LINE
8
top_outsideCutPath
10
314.491291
20
7.826656
11
314.491291
21
3.000662
0
LINE
8
top_outsideCutPath
10
314.491291
20
3.000662
11
324.746528
21
3.000662
0
LINE
8
top_outsideCutPath
10
324.746528
20
3.000662
11
324.746528
21
7.826656
0
LINE
8
top_outsideCutPath
10
324.746528
20
7.826656
11
335.001765
21
7.826656
0
LINE
8
top_outsideCutPath
10
335.001765
20
7.826656
11
335.001765
21
3.000662
0
LINE
8
top_outsideCutPath
10
335.001765
20
3.000662
11
345.257003
21
3.000662
0
LINE
8
top_outsideCutPath
10
345.257003
20
3.000662
11
345.257003
21
7.826656
0
LINE
8
top_outsideCutPath
10
345.257003
20
7.826656
11
355.512240
21
7.826656
0
LINE
8
top_outsideCutPath
10
355.512240
20
7.826656
11
355.512240
21
3.000662
0
LINE
8
top_outsideCutPath
10
355.512240
20
3.000662
11
365.767477
21
3.000662
0
LINE
8
top_outsideCutPath
10
365.767477
20
3.000662
11
365.767477
21
7.826656
0
LINE
8
top_outsideCutPath
10
365.767477
20
7.826656
11
376.022714
21
7.826656
0
LINE
8
top_outsideCutPath
10
376.022714
20
7.826656
11
376.022714
21
3.000662
0
LINE
8
top_outsideCutPath
10
376.022714
20
3.000662
11
386.277951
21
3.000662
0
LINE
8
top_outsideCutPath
10
386.277951
20
3.000662
11
386.277951
21
7.826656
0
LINE
8
top_outsideCutPath
10
386.277951
20
7.826656
11
391.130403
21
7.826656
0
LINE
8
top_outsideCutPath
10
391.130403
20
7.826656
11
391.130403
21
19.666745
0
LINE
8
top_outsideCutPath
10
391.130403
20
19.666745
11
395.956397
21
19.666745
0
LINE
8
top_outsideCutPath
10
395.956397
20
19.666745
11
395.956397
21
29.921982
0
LINE
8
top_outsideCutPath
10
395.956397
20
29.921982
11
391.130403
21
29.921982
0
LINE
8
top_outsideCutPath
10
391.130403
20
29.921982
11
391.130403
21
40.178278
0
LINE
8
top_outsideCutPath
10
391.130403
20
40.178278
11
395.956397
21
40.178278
0
LINE
8
top_outsideCutPath
10
395.956397
20
40.178278
11
395.956397
21
50.433515
0
LINE
8
top_outsideCutPath
10
395.956397
20
50.433515
11
391.130403
21
50.433515
0
LINE
8
top_outsideCutPath
10
391.130403
20
50.433515
11
391.130403
21
60.688752
0
LINE
8
top_outsideCutPath
10
391.130403
20
60.688752
11
395.956397
21
60.688752
0
LINE
8
top_outsideCutPath
10
395.956397
20
60.688752
11
395.956397
21
70.943989
0
LINE
8
top_outsideCutPath
10
395.956397
20
70.943989
11
391.130403
21
70.943989
0
LINE
8
top_outsideCutPath
10
391.130403
20
70.943989
11
391.130403
21
81.199226
0
LINE
8
top_outsideCutPath
10
391.130403
20
81.199226
11
395.956397
21
81.199226
0
LINE
8
top_outsideCutPath
10
395.956397
20
81.199226
11
395.956397
21
91.454463
0
LINE
8
top_outsideCutPath
10
395.956397
20
91.454463
11
391.130403
21
91.454463
0
LINE
8
top_outsideCutPath
10
391.130403
20
91.454463
11
391.130403
21
101.709700
0
LINE
8
top_outsideCutPath
10
391.130403
20
101.709700
11
395.956397
21
101.709700
0
LINE
8
top_outsideCutPath
10
395.956397
20
101.709700
11
395.956397
21
111.964937
0
LINE
8
top_outsideCutPath
10
395.956397
20
111.964937
11
391.130403
21
111.964937
0
LINE
8
top_outsideCutPath
10
391.130403
20
111.964937
11
391.130403
21
122.220174
0
LINE
8
top_outsideCutPath
10
391.130403
20
122.220174
11
395.956397
21
122.220174
0
LINE
8
top_outsideCutPath
10
395.956397
20
122.220174
11
395.956397
21
132.475411
0
LINE
8
top_outsideCutPath
10
395.956397
20
132.475411
11
391.130403
21
132.475411
0
LINE
8
top_outsideCutPath
10
391.130403
20
132.475411
11
391.130403
21
142.730649
0
LINE
8
top_outsideCutPath
10
391.130403
20
142.730649
11
395.956397
21
142.730649
0
LINE
8
top_outsideCutPath
10
395.956397
20
142.730649
11
395.956397
21
152.985886
0
LINE
8
top_outsideCutPath
10
395.956397
20
152.985886
11
391.130403
21
152.985886
0
LINE
8
top_outsideCutPath
10
391.130403
20
152.985886
11
391.130403
21
163.241123
0
LINE
8
top_outsideCutPath
10
391.130403
20
163.241123
11
391.130403
21
164.826769
0
LINE
8
top_outsideCutPath
10
391.130403
20
164.826769
11
386.277951
21
164.826769
0
LINE
8
top_outsideCutPath
10
386.277951
20
164.826769
11
386.277951
21
169.652763
0
LINE
8
top_outsideCutPath
10
386.277951
20
169.652763
11
376.022714
21
169.652763
0
LINE
8
top_outsideCutPath
10
376.022714
20
169.652763
11
376.022714
21
164.826769
0
LINE
8
top_outsideCutPath
10
376.022714
20
164.826769
11
365.767477
21
164.826769
0
LINE
8
top_outsideCutPath
10
365.767477
20
164.826769
11
365.767477
21
169.652763
0
LINE
8
top_outsideCutPath
10
365.767477
20
169.652763
11
355.512240
21
169.652763
0
LINE
8
top_outsideCutPath
10
355.512240
20
169.652763
11
355.512240
21
164.826769
0
LINE
8
top_outsideCutPath
10
355.512240
20
164.826769
11
345.257003
21
164.826769
0
LINE
8
top_outsideCutPath
10
345.257003
20
164.826769
11
345.257003
21
169.652763
0
LINE
8
top_outsideCutPath
10
345.257003
20
169.652763
11
335.001765
21
169.652763
0
LINE
8
top_outsideCutPath
10
335.001765
20
169.652763
11
335.001765
21
164.826769
0
LINE
8
top_outsideCutPath
10
335.001765
20
164.826769
11
324.746528
21
164.826769
0
LINE
8
top_outsideCutPath
10
324.746528
20
164.826769
11
324.746528
21
169.652763
0
LINE
8
top_outsideCutPath
10
324.746528
20
169.652763
11
314.491291
21
169.652763
0
LINE
8
top_outsideCutPath
10
314.491291
20
169.652763
11
314.491291
21
164.826769
0
LINE
8
top_outsideCutPath
10
314.491291
20
164.826769
11
304.236054
21
164.826769
0
LINE
8
top_outsideCutPath
10
304.236054
20
164.826769
11
304.236054
21
169.652763
0
LINE
8
top_outsideCutPath
10
304.236054
20
169.652763
11
293.980817
21
169.652763
0
LINE
8
top_outsideCutPath
10
293.980817
20
169.652763
11
293.980817
21
164.826769
0
LINE
8
top_outsideCutPath
10
293.980817
20
164.826769
11
289.128365
21
164.826769
0
LINE
8
back_outsideCutPath
10
0.000000
20
125.304683
11
0.000000
21
110.861626
0
LINE
8
back_outsideCutPath
10
0.000000
20
110.861626
11
4.825994
21
110.861626
0
LINE
8
back_outsideCutPath
10
4.825994
20
110.861626
11
4.825994
21
100.606389
0
LINE
8
back_outsideCutPath
10
4.825994
20
100.606389
11
0.000000
21
100.606389
0
LINE
8
back_outsideCutPath
10
0.000000
20
100.606389
11
0.000000
21
90.351152
0
LINE
8
back_outsideCutPath
10
0.000000
20
90.351152
11
4.825994
21
90.351152
0
LINE
8
back_outsideCutPath
10
4.825994
20
90.351152
11
4.825994
21
80.095915
0
LINE
8
back_outsideCutPath
10
4.825994
20
80.095915
11
0.000000
21
80.095915
0
LINE
8
back_outsideCutPath
10
0.000000
20
80.095915
11
0.000000
21
69.840678
0
LINE
8
back_outsideCutPath
10
0.000000
20
69.840678
11
0.000000
21
65.652858
0
LINE
8
back_outsideCutPath
10
0.000000
20
65.652858
11
9.677361
21
65.652858
0
LINE
8
back_outsideCutPath
10
9.677361
20
65.652858
11
9.677361
21
70.478852
0
LINE
8
back_outsideCutPath
10
9.677361
20
70.478852
11
19.932546
21
70.478852
0
LINE
8
back_outsideCutPath
10
19.932546
20
70.478852
11
19.932546
21
65.652858
0
LINE
8
back_outsideCutPath
10
19.932546
20
65.652858
11
30.187862
21
65.652858
0
LINE
8
back_outsideCutPath
10
30.187862
20
65.652858
11
30.187862
21
70.478852
0
LINE
8
back_outsideCutPath
10
30.187862
20
70.478852
11
40.443099
21
70.478852
0
LINE
8
back_outsideCutPath
10
40.443099
20
70.478852
11
40.443099
21
65.652858
0
LINE
8
back_outsideCutPath
10
40.443099
20
65.652858
11
50.698336
21
65.652858
0
LINE
8
back_outsideCutPath
10
50.698336
20
65.652858
11
50.698336
21
70.478852
0
LINE
8
back_outsideCutPath
10
50.698336
20
70.478852
11
60.953573
21
70.478852
0
LINE
8
back_outsideCutPath
10
60.953573
20
70.478852
11
60.953573
21
65.652858
0
LINE
8
back_outsideCutPath
10
60.953573
20
65.652858
11
68.456883
21
65.652858
0
LINE
8
back_outsideCutPath
10
98.429374
20
70.478852
11
101.974522
21
70.478852
0
LINE
8
back_outsideCutPath
10
101.974522
20
70.478852
11
101.974522
21
65.652858
0
LINE
8
back_outsideCutPath
10
101.974522
20
65.652858
11
111.651380
21
65.652858
0
LINE
8
back_outsideCutPath
10
111.651380
20
65.652858
11
111.651380
21
80.095915
0
LINE
8
back_outsideCutPath
10
111.651380
20
80.095915
11
106.825386
21
80.095915
0
LINE
8
back_outsideCutPath
10
104.194108
20
81.753527
11
98.448159
21
81.753527
0
LINE
8
back_outsideCutPath
10
106.825386
20
80.095915
11
106.825386
21
90.351152
0
LINE
8
back_outsideCutPath
10
98.566163
20
70.593946
11
98.566163
21
81.615680
0
LINE
8
back_outsideCutPath
10
106.825386
20
90.351152
11
111.651380
21
90.351152
0
LINE
8
back_outsideCutPath
10
111.651380
20
90.351152
11
111.651380
21
100.606389
0
LINE
8
back_outsideCutPath
10
104.320050
20
81.622030
11
104.320050
21
102.594950
0
LINE
8
back_outsideCutPath
10
111.651380
20
100.606389
11
106.825386
21
100.606389
0
LINE
8
back_outsideCutPath
10
106.825386
20
100.606389
11
106.825386
21
110.861626
0
LINE
8
back_outsideCutPath
10
68.330412
20
65.792823
11
68.330412
21
102.327721
0
LINE
8
back_outsideCutPath
10
106.825386
20
110.861626
11
111.651380
21
110.861626
0
LINE
8
back_outsideCutPath
10
111.651380
20
110.861626
11
111.651380
21
121.116863
0
LINE
8
back_outsideCutPath
10
111.651380
20
121.116863
11
111.651380
21
125.304683
0
LINE
8
back_outsideCutPath
10
111.651380
20
125.304683
11
101.974522
21
125.304683
0
LINE
8
back_outsideCutPath
10
101.974522
20
125.304683
11
101.974522
21
120.478689
0
LINE
8
back_outsideCutPath
10
101.974522
20
120.478689
11
91.719284
21
120.478689
0
LINE
8
back_outsideCutPath
10
91.719284
20
120.478689
11
91.719284
21
125.304683
0
LINE
8
back_outsideCutPath
10
91.719284
20
125.304683
11
81.464047
21
125.304683
0
LINE
8
back_outsideCutPath
10
81.464047
20
125.304683
11
81.464047
21
120.478689
0
LINE
8
back_outsideCutPath
10
81.464047
20
120.478689
11
71.208810
21
120.478689
0
LINE
8
back_outsideCutPath
10
104.191992
20
102.468953
11
68.201031
21
102.468953
0
LINE
8
back_outsideCutPath
10
71.208810
20
120.478689
11
71.208810
21
125.304683
0
LINE
8
back_outsideCutPath
10
71.208810
20
125.304683
11
60.953573
21
125.304683
0
LINE
8
back_outsideCutPath
10
60.953573
20
125.304683
11
60.953573
21
120.478689
0
LINE
8
back_outsideCutPath
10
60.953573
20
120.478689
11
50.698336
21
120.478689
0
LINE
8
back_outsideCutPath
10
50.698336
20
120.478689
11
50.698336
21
125.304683
0
LINE
8
back_outsideCutPath
10
50.698336
20
125.304683
11
40.443099
21
125.304683
0
LINE
8
back_outsideCutPath
10
40.443099
20
125.304683
11
40.443099
21
120.478689
0
LINE
8
back_outsideCutPath
10
40.443099
20
120.478689
11
30.187862
21
120.478689
0
LINE
8
back_outsideCutPath
10
30.187862
20
120.478689
11
30.187862
21
125.304683
0
LINE
8
back_outsideCutPath
10
30.187862
20
125.304683
11
19.932546
21
125.304683
0
LINE
8
back_outsideCutPath
10
19.932546
20
125.304683
11
19.932546
21
120.478689
0
LINE
8
back_outsideCutPath
10
19.932546
20
120.478689
11
9.677361
21
120.478689
0
LINE
8
back_outsideCutPath
10
9.677361
20
120.478689
11
9.677361
21
125.304683
0
LINE
8
back_outsideCutPath
10
9.677361
20
125.304683
11
0.000000
21
125.304683
0
LINE
8
back_outsideCutPath
10
178.472875
20
101.988306
11
188.472790
21
101.988306
0
LINE
8
back_outsideCutPath
10
188.472790
20
101.988306
11
188.472790
21
90.488471
0
LINE
8
back_outsideCutPath
10
188.472790
20
90.488471
11
178.472875
21
90.488471
0
LINE
8
back_outsideCutPath
10
178.472875
20
90.488471
11
178.472875
21
101.988306
0
LINE
8
back_outsideCutPath
10
127.772952
20
38.830227
11
141.773096
21
38.830227
0
LINE
8
back_outsideCutPath
10
141.773096
20
38.830227
11
141.773096
21
29.829378
0
LINE
8
back_outsideCutPath
10
141.773096
20
29.829378
11
127.772952
21
29.829378
0
LINE
8
back_outsideCutPath
10
127.772952
20
29.829378
11
127.772952
21
38.830227
0
LINE
8
back_outsideCutPath
10
312.013101
20
22.520855
11
311.918819
21
22.053790
0
LINE
8
back_outsideCutPath
10
311.918819
20
22.053790
11
311.661686
21
21.672366
0
LINE
8
back_outsideCutPath
10
311.661686
20
21.672366
11
311.280296
21
21.415183
0
LINE
8
back_outsideCutPath
10
311.280296
20
21.415183
11
310.813244
21
21.320839
0
LINE
8
back_outsideCutPath
10
310.813244
20
21.320839
11
310.346168
21
21.415070
0
LINE
8
back_outsideCutPath
10
310.346168
20
21.415070
11
309.964716
21
21.672161
0
LINE
8
back_outsideCutPath
10
309.964716
20
21.672161
11
309.707491
21
22.053522
0
LINE
8
back_outsideCutPath
10
309.707491
20
22.053522
11
309.613095
21
22.520564
0
LINE
8
back_outsideCutPath
10
309.613095
20
22.520564
11
309.707275
21
22.987650
0
LINE
8
back_outsideCutPath
10
309.707275
20
22.987650
11
309.964323
21
23.369130
0
LINE
8
back_outsideCutPath
10
309.964323
20
23.369130
11
310.345656
21
23.626397
0
LINE
8
back_outsideCutPath
10
310.345656
20
23.626397
11
310.812688
21
23.720845
0
LINE
8
back_outsideCutPath
10
310.812688
20
23.720845
11
311.279778
21
23.626719
0
LINE
8
back_outsideCutPath
10
311.279778
20
23.626719
11
311.661284
21
23.369719
0
LINE
8
back_outsideCutPath
10
311.661284
20
23.369719
11
311.918595
21
22.988423
0
LINE
8
back_outsideCutPath
10
311.918595
20
22.988423
11
312.013101
21
22.521411
0
LINE
8
back_outsideCutPath
10
312.013101
20
22.521411
11
312.013101
21
22.520855
0
LINE
8
back_outsideCutPath
10
312.013101
20
82.190772
11
311.918813
21
81.723713
0
LINE
8
back_outsideCutPath
10
311.918813
20
81.723713
11
311.661679
21
81.342295
0
LINE
8
back_outsideCutPath
10
311.661679
20
81.342295
11
311.280292
21
81.085117
0
LINE
8
back_outsideCutPath
10
311.280292
20
81.085117
11
310.813244
21
80.990774
0
LINE
8
back_outsideCutPath
10
310.813244
20
80.990774
11
310.346170
21
81.085004
0
LINE
8
back_outsideCutPath
10
310.346170
20
81.085004
11
309.964719
21
81.342093
0
LINE
8
back_outsideCutPath
10
309.964719
20
81.342093
11
309.707493
21
81.723452
0
LINE
8
back_outsideCutPath
10
309.707493
20
81.723452
11
309.613095
21
82.190492
0
LINE
8
back_outsideCutPath
10
309.613095
20
82.190492
11
309.707275
21
82.657577
0
LINE
8
back_outsideCutPath
10
309.707275
20
82.657577
11
309.964323
21
83.039058
0
LINE
8
back_outsideCutPath
10
309.964323
20
83.039058
11
310.345656
21
83.296325
0
LINE
8
back_outsideCutPath
10
310.345656
20
83.296325
11
310.812688
21
83.390772
0
LINE
8
back_outsideCutPath
10
310.812688
20
83.390772
11
311.279778
21
83.296647
0
LINE
8
back_outsideCutPath
10
311.279778
20
83.296647
11
311.661285
21
83.039646
0
LINE
8
back_outsideCutPath
10
311.661285
20
83.039646
11
311.918596
21
82.658349
0
LINE
8
back_outsideCutPath
10
311.918596
20
82.658349
11
312.013101
21
82.191336
0
LINE
8
back_outsideCutPath
10
312.013101
20
82.191336
11
312.013101
21
82.190772
0
LINE
8
back_outsideCutPath
10
371.623042
20
82.190772
11
371.528755
21
81.723713
0
LINE
8
back_outsideCutPath
10
371.528755
20
81.723713
11
371.271621
21
81.342295
0
LINE
8
back_outsideCutPath
10
371.271621
20
81.342295
11
370.890233
21
81.085117
0
LINE
8
back_outsideCutPath
10
370.890233
20
81.085117
11
370.423185
21
80.990774
0
LINE
8
back_outsideCutPath
10
370.423185
20
80.990774
11
369.956111
21
81.085004
0
LINE
8
back_outsideCutPath
10
369.956111
20
81.085004
11
369.574660
21
81.342093
0
LINE
8
back_outsideCutPath
10
369.574660
20
81.342093
11
369.317435
21
81.723452
0
LINE
8
back_outsideCutPath
10
369.317435
20
81.723452
11
369.223037
21
82.190492
0
LINE
8
back_outsideCutPath
10
369.223037
20
82.190492
11
369.317216
21
82.657577
0
LINE
8
back_outsideCutPath
10
369.317216
20
82.657577
11
369.574265
21
83.039058
0
LINE
8
back_outsideCutPath
10
369.574265
20
83.039058
11
369.955598
21
83.296325
0
LINE
8
back_outsideCutPath
10
369.955598
20
83.296325
11
370.422629
21
83.390772
0
LINE
8
back_outsideCutPath
10
370.422629
20
83.390772
11
370.889720
21
83.296647
0
LINE
8
back_outsideCutPath
10
370.889720
20
83.296647
11
371.271226
21
83.039646
0
LINE
8
back_outsideCutPath
10
371.271226
20
83.039646
11
371.528537
21
82.658349
0
LINE
8
back_outsideCutPath
10
371.528537
20
82.658349
11
371.623042
21
82.191336
0
LINE
8
back_outsideCutPath
10
371.623042
20
82.191336
11
371.623042
21
82.190772
0
LINE
8
back_outsideCutPath
10
371.623042
20
22.520855
11
371.528760
21
22.053790
0
LINE
8
back_outsideCutPath
10
371.528760
20
22.053790
11
371.271627
21
21.672366
0
LINE
8
back_outsideCutPath
10
371.271627
20
21.672366
11
370.890238
21
21.415183
0
LINE
8
back_outsideCutPath
10
370.890238
20
21.415183
11
370.423185
21
21.320839
0
LINE
8
back_outsideCutPath
10
370.423185
20
21.320839
11
369.956110
21
21.415070
0
LINE
8
back_outsideCutPath
10
369.956110
20
21.415070
11
369.574658
21
21.672161
0
LINE
8
back_outsideCutPath
10
369.574658
20
21.672161
11
369.317432
21
22.053522
0
LINE
8
back_outsideCutPath
10
369.317432
20
22.053522
11
369.223037
21
22.520564
0
LINE
8
back_outsideCutPath
10
369.223037
20
22.520564
11
369.317216
21
22.987650
0
LINE
8
back_outsideCutPath
10
369.317216
20
22.987650
11
369.574265
21
23.369130
0
LINE
8
back_outsideCutPath
10
369.574265
20
23.369130
11
369.955598
21
23.626397
0
LINE
8
back_outsideCutPath
10
369.955598
20
23.626397
11
370.422629
21
23.720845
0
LINE
8
back_outsideCutPath
10
370.422629
20
23.720845
11
370.889719
21
23.626719
0
LINE
8
back_outsideCutPath
10
370.889719
20
23.626719
11
371.271225
21
23.369719
0
LINE
8
back_outsideCutPath
10
371.271225
20
23.369719
11
371.528536
21
22.988423
0
LINE
8
back_outsideCutPath
10
371.528536
20
22.988423
11
371.623042
21
22.521411
0
LINE
8
back_outsideCutPath
10
371.623042
20
22.521411
11
371.623042
21
22.520855
0
LINE
8
right_outsideCutPath
10
119.477216
20
125.304683
11
119.477216
21
110.861626
0
LINE
8
right_outsideCutPath
10
119.477216
20
110.861626
11
114.651222
21
110.861626
0
LINE
8
right_outsideCutPath
10
114.651222
20
110.861626
11
114.651222
21
100.606389
0
LINE
8
right_outsideCutPath
10
114.651222
20
100.606389
11
119.477216
21
100.606389
0
LINE
8
right_outsideCutPath
10
119.477216
20
100.606389
11
119.477216
21
90.351152
0
LINE
8
right_outsideCutPath
10
119.477216
20
90.351152
11
114.651222
21
90.351152
0
LINE
8
right_outsideCutPath
10
114.651222
20
90.351152
11
114.651222
21
80.095915
0
LINE
8
right_outsideCutPath
10
114.651222
20
80.095915
11
119.477216
21
80.095915
0
LINE
8
right_outsideCutPath
10
119.477216
20
80.095915
11
119.477216
21
69.840678
0
LINE
8
right_outsideCutPath
10
119.477216
20
69.840678
11
119.477216
21
65.652858
0
LINE
8
right_outsideCutPath
10
119.477216
20
65.652858
11
131.318099
21
65.652858
0
LINE
8
right_outsideCutPath
10
131.318099
20
65.652858
11
131.318099
21
70.478852
0
LINE
8
right_outsideCutPath
10
131.318099
20
70.478852
11
141.573336
21
70.478852
0
LINE
8
right_outsideCutPath
10
141.573336
20
70.478852
11
141.573336
21
65.652858
0
LINE
8
right_outsideCutPath
10
141.573336
20
65.652858
11
151.828573
21
65.652858
0
LINE
8
right_outsideCutPath
10
151.828573
20
65.652858
11
151.828573
21
70.478852
0
LINE
8
right_outsideCutPath
10
151.828573
20
70.478852
11
162.083810
21
70.478852
0
LINE
8
right_outsideCutPath
10
162.083810
20
70.478852
11
162.083810
21
65.652858
0
LINE
8
right_outsideCutPath
10
162.083810
20
65.652858
11
172.339047
21
65.652858
0
LINE
8
right_outsideCutPath
10
172.339047
20
65.652858
11
172.339047
21
70.478852
0
LINE
8
right_outsideCutPath
10
172.339047
20
70.478852
11
182.594285
21
70.478852
0
LINE
8
right_outsideCutPath
10
182.594285
20
70.478852
11
182.594285
21
65.652858
0
LINE
8
right_outsideCutPath
10
182.594285
20
65.652858
11
192.849522
21
65.652858
0
LINE
8
right_outsideCutPath
10
192.849522
20
65.652858
11
192.849522
21
70.478852
0
LINE
8
right_outsideCutPath
10
192.849522
20
70.478852
11
203.104759
21
70.478852
0
LINE
8
right_outsideCutPath
10
203.104759
20
70.478852
11
203.104759
21
65.652858
0
LINE
8
right_outsideCutPath
10
203.104759
20
65.652858
11
213.359996
21
65.652858
0
LINE
8
right_outsideCutPath
10
213.359996
20
65.652858
11
213.359996
21
70.478852
0
LINE
8
right_outsideCutPath
10
213.359996
20
70.478852
11
223.615233
21
70.478852
0
LINE
8
right_outsideCutPath
10
223.615233
20
70.478852
11
223.615233
21
65.652858
0
LINE
8
right_outsideCutPath
10
223.615233
20
65.652858
11
233.870470
21
65.652858
0
LINE
8
right_outsideCutPath
10
233.870470
20
65.652858
11
233.870470
21
70.478852
0
LINE
8
right_outsideCutPath
10
233.870470
20
70.478852
11
244.125707
21
70.478852
0
LINE
8
right_outsideCutPath
10
244.125707
20
70.478852
11
244.125707
21
65.652858
0
LINE
8
right_outsideCutPath
10
244.125707
20
65.652858
11
254.380944
21
65.652858
0
LINE
8
right_outsideCutPath
10
254.380944
20
65.652858
11
254.380944
21
70.478852
0
LINE
8
right_outsideCutPath
10
254.380944
20
70.478852
11
264.635917
21
70.478852
0
LINE
8
right_outsideCutPath
10
264.635917
20
70.478852
11
264.635917
21
65.652858
0
LINE
8
right_outsideCutPath
10
264.635917
20
65.652858
11
274.891154
21
65.652858
0
LINE
8
right_outsideCutPath
10
274.891154
20
65.652858
11
276.478652
21
65.652858
0
LINE
8
right_outsideCutPath
10
276.478652
20
65.652858
11
276.478652
21
80.095915
0
LINE
8
right_outsideCutPath
10
276.478652
20
80.095915
11
281.304646
21
80.095915
0
LINE
8
right_outsideCutPath
10
281.304646
20
80.095915
11
281.304646
21
90.351152
0
LINE
8
right_outsideCutPath
10
281.304646
20
90.351152
11
276.478652
21
90.351152
0
LINE
8
right_outsideCutPath
10
276.478652
20
90.351152
11
276.478652
21
100.606389
0
LINE
8
right_outsideCutPath
10
276.478652
20
100.606389
11
281.304646
21
100.606389
0
LINE
8
right_outsideCutPath
10
281.304646
20
100.606389
11
281.304646
21
110.861626
0
LINE
8
right_outsideCutPath
10
281.304646
20
110.861626
11
276.478652
21
110.861626
0
LINE
8
right_outsideCutPath
10
276.478652
20
110.861626
11
276.478652
21
121.116863
0
LINE
8
right_outsideCutPath
10
276.478652
20
121.116863
11
276.478652
21
125.304683
0
LINE
8
right_outsideCutPath
10
276.478652
20
125.304683
11
264.635917
21
125.304683
0
LINE
8
right_outsideCutPath
10
264.635917
20
125.304683
11
264.635917
21
120.478689
0
LINE
8
right_outsideCutPath
10
264.635917
20
120.478689
11
254.380944
21
120.478689
0
LINE
8
right_outsideCutPath
10
254.380944
20
120.478689
11
254.380944
21
125.304683
0
LINE
8
right_outsideCutPath
10
254.380944
20
125.304683
11
244.125707
21
125.304683
0
LINE
8
right_outsideCutPath
10
244.125707
20
125.304683
11
244.125707
21
120.478689
0
LINE
8
right_outsideCutPath
10
244.125707
20
120.478689
11
233.870470
21
120.478689
0
LINE
8
right_outsideCutPath
10
233.870470
20
120.478689
11
233.870470
21
125.304683
0
LINE
8
right_outsideCutPath
10
233.870470
20
125.304683
11
223.615233
21
125.304683
0
LINE
8
right_outsideCutPath
10
223.615233
20
125.304683
11
223.615233
21
120.478689
0
LINE
8
right_outsideCutPath
10
223.615233
20
120.478689
11
213.359996
21
120.478689
0
LINE
8
right_outsideCutPath
10
213.359996
20
120.478689
11
213.359996
21
125.304683
0
LINE
8
right_outsideCutPath
10
213.359996
20
125.304683
11
203.104759
21
125.304683
0
LINE
8
right_outsideCutPath
10
203.104759
20
125.304683
11
203.104759
21
120.478689
0
LINE
8
right_outsideCutPath
10
203.104759
20
120.478689
11
192.849522
21
120.478689
0
LINE
8
right_outsideCutPath
10
192.849522
20
120.478689
11
192.849522
21
125.304683
0
LINE
8
right_outsideCutPath
10
192.849522
20
125.304683
11
182.594285
21
125.304683
0
LINE
8
right_outsideCutPath
10
182.594285
20
125.304683
11
182.594285
21
120.478689
0
LINE
8
right_outsideCutPath
10
182.594285
20
120.478689
11
172.339047
21
120.478689
0
LINE
8
right_outsideCutPath
10
172.339047
20
120.478689
11
172.339047
21
125.304683
0
LINE
8
right_outsideCutPath
10
172.339047
20
125.304683
11
162.083810
21
125.304683
0
LINE
8
right_outsideCutPath
10
162.083810
20
125.304683
11
162.083810
21
120.478689
0
LINE
8
right_outsideCutPath
10
162.083810
20
120.478689
11
151.828573
21
120.478689
0
LINE
8
right_outsideCutPath
10
151.828573
20
120.478689
11
151.828573
21
125.304683
0
LINE
8
right_outsideCutPath
10
151.828573
20
125.304683
11
141.573336
21
125.304683
0
LINE
8
right_outsideCutPath
10
141.573336
20
125.304683
11
141.573336
21
120.478689
0
LINE
8
right_outsideCutPath
10
141.573336
20
120.478689
11
131.318099
21
120.478689
0
LINE
8
right_outsideCutPath
10
131.318099
20
120.478689
11
131.318099
21
125.304683
0
LINE
8
right_outsideCutPath
10
131.318099
20
125.304683
11
121.062862
21
125.304683
0
LINE
8
right_outsideCutPath
10
121.062862
20
125.304683
11
119.477216
21
125.304683
0
LINE
8
bottom_outsideCutPath
10
289.128365
20
334.477917
11
289.128365
21
322.637034
0
LINE
8
bottom_outsideCutPath
10
289.128365
20
322.637034
11
284.302371
21
322.637034
0
LINE
8
bottom_outsideCutPath
10
284.302371
20
322.637034
11
284.302371
21
312.381797
0
LINE
8
bottom_outsideCutPath
10
284.302371
20
312.381797
11
289.128365
21
312.381797
0
LINE
8
bottom_outsideCutPath
10
289.128365
20
312.381797
11
289.128365
21
302.126613
0
LINE
8
bottom_outsideCutPath
10
289.128365
20
302.126613
11
284.302371
21
302.126613
0
LINE
8
bottom_outsideCutPath
10
284.302371
20
302.126613
11
284.302371
21
291.871376
0
LINE
8
bottom_outsideCutPath
10
284.302371
20
291.871376
11
289.128365
21
291.871376
0
LINE
8
bottom_outsideCutPath
10
289.128365
20
291.871376
11
289.128365
21
281.616192
0
LINE
8
bottom_outsideCutPath
10
289.128365
20
281.616192
11
284.302371
21
281.616192
0
LINE
8
bottom_outsideCutPath
10
284.302371
20
281.616192
11
284.302371
21
271.360955
0
LINE
8
bottom_outsideCutPath
10
284.302371
20
271.360955
11
289.128365
21
271.360955
0
LINE
8
bottom_outsideCutPath
10
289.128365
20
271.360955
11
289.128365
21
261.105612
0
LINE
8
bottom_outsideCutPath
10
289.128365
20
261.105612
11
284.302371
21
261.105612
0
LINE
8
bottom_outsideCutPath
10
284.302371
20
261.105612
11
284.302371
21
250.850375
0
LINE
8
bottom_outsideCutPath
10
284.302371
20
250.850375
11
289.128365
21
250.850375
0
LINE
8
bottom_outsideCutPath
10
289.128365
20
250.850375
11
289.128365
21
240.595138
0
LINE
8
bottom_outsideCutPath
10
289.128365
20
240.595138
11
284.302371
21
240.595138
0
LINE
8
bottom_outsideCutPath
10
284.302371
20
240.595138
11
284.302371
21
230.339901
0
LINE
8
bottom_outsideCutPath
10
284.302371
20
230.339901
11
289.128365
21
230.339901
0
LINE
8
bottom_outsideCutPath
10
289.128365
20
230.339901
11
289.128365
21
220.084664
0
LINE
8
bottom_outsideCutPath
10
289.128365
20
220.084664
11
284.302371
21
220.084664
0
LINE
8
bottom_outsideCutPath
10
284.302371
20
220.084664
11
284.302371
21
209.829426
0
LINE
8
bottom_outsideCutPath
10
284.302371
20
209.829426
11
289.128365
21
209.829426
0
LINE
8
bottom_outsideCutPath
10
289.128365
20
209.829426
11
289.128365
21
199.574189
0
LINE
8
bottom_outsideCutPath
10
289.128365
20
199.574189
11
284.302371
21
199.574189
0
LINE
8
bottom_outsideCutPath
10
331.714216
20
198.507190
11
295.985351
21
198.507190
0
LINE
8
bottom_outsideCutPath
10
284.302371
20
199.574189
11
284.302371
21
189.319481
0
LINE
8
bottom_outsideCutPath
10
284.302371
20
189.319481
11
289.128365
21
189.319481
0
LINE
8
bottom_outsideCutPath
10
289.128365
20
189.319481
11
289.128365
21
179.064244
0
LINE
8
bottom_outsideCutPath
10
296.116531
20
198.455236
11
296.116531
21
172.747497
0
LINE
8
bottom_outsideCutPath
10
331.555863
20
198.564385
11
331.555863
21
177.448563
0
LINE
8
bottom_outsideCutPath
10
289.128365
20
179.064244
11
289.128365
21
177.478598
0
LINE
8
bottom_outsideCutPath
10
289.128365
20
177.478598
11
293.980817
21
177.478598
0
LINE
8
bottom_outsideCutPath
10
293.980817
20
177.478598
11
293.980817
21
172.652605
0
LINE
8
bottom_outsideCutPath
10
293.980817
20
172.652605
11
304.236054
21
172.652605
0
LINE
8
bottom_outsideCutPath
10
304.236054
20
172.652605
11
304.236054
21
177.478598
0
LINE
8
bottom_outsideCutPath
10
304.236054
20
177.478598
11
314.491291
21
177.478598
0
LINE
8
bottom_outsideCutPath
10
314.491291
20
177.478598
11
314.491291
21
172.652605
0
LINE
8
bottom_outsideCutPath
10
314.491291
20
172.652605
11
324.746528
21
172.652605
0
LINE
8
bottom_outsideCutPath
10
324.746528
20
172.652605
11
324.746528
21
177.478598
0
LINE
8
bottom_outsideCutPath
10
324.746528
20
177.478598
11
335.001765
21
177.478598
0
LINE
8
bottom_outsideCutPath
10
335.001765
20
177.478598
11
335.001765
21
172.652605
0
LINE
8
bottom_outsideCutPath
10
335.001765
20
172.652605
11
345.257003
21
172.652605
0
LINE
8
bottom_outsideCutPath
10
345.257003
20
172.652605
11
345.257003
21
177.478598
0
LINE
8
bottom_outsideCutPath
10
345.257003
20
177.478598
11
355.512240
21
177.478598
0
LINE
8
bottom_outsideCutPath
10
355.512240
20
177.478598
11
355.512240
21
172.652605
0
LINE
8
bottom_outsideCutPath
10
355.512240
20
172.652605
11
365.767477
21
172.652605
0
LINE
8
bottom_outsideCutPath
10
365.767477
20
172.652605
11
365.767477
21
177.478598
0
LINE
8
bottom_outsideCutPath
10
365.767477
20
177.478598
11
376.022714
21
177.478598
0
LINE
8
bottom_outsideCutPath
10
376.022714
20
177.478598
11
376.022714
21
172.652605
0
LINE
8
bottom_outsideCutPath
10
376.022714
20
172.652605
11
386.277951
21
172.652605
0
LINE
8
bottom_outsideCutPath
10
386.277951
20
172.652605
11
386.277951
21
177.478598
0
LINE
8
bottom_outsideCutPath
10
386.277951
20
177.478598
11
391.130403
21
177.478598
0
LINE
8
bottom_outsideCutPath
10
391.130403
20
177.478598
11
391.130403
21
189.319481
0
LINE
8
bottom_outsideCutPath
10
391.130403
20
189.319481
11
395.956397
21
189.319481
0
LINE
8
bottom_outsideCutPath
10
395.956397
20
189.319481
11
395.956397
21
199.574189
0
LINE
8
bottom_outsideCutPath
10
395.956397
20
199.574189
11
391.130403
21
199.574189
0
LINE
8
bottom_outsideCutPath
10
391.130403
20
199.574189
11
391.130403
21
209.829426
0
LINE
8
bottom_outsideCutPath
10
391.130403
20
209.829426
11
395.956397
21
209.829426
0
LINE
8
bottom_outsideCutPath
10
395.956397
20
209.829426
11
395.956397
21
220.084664
0
LINE
8
bottom_outsideCutPath
10
395.956397
20
220.084664
11
391.130403
21
220.084664
0
LINE
8
bottom_outsideCutPath
10
391.130403
20
220.084664
11
391.130403
21
230.339901
0
LINE
8
bottom_outsideCutPath
10
391.130403
20
230.339901
11
395.956397
21
230.339901
0
LINE
8
bottom_outsideCutPath
10
395.956397
20
230.339901
11
395.956397
21
240.595138
0
LINE
8
bottom_outsideCutPath
10
395.956397
20
240.595138
11
391.130403
21
240.595138
0
LINE
8
bottom_outsideCutPath
10
391.130403
20
240.595138
11
391.130403
21
250.850375
0
LINE
8
bottom_outsideCutPath
10
391.130403
20
250.850375
11
395.956397
21
250.850375
0
LINE
8
bottom_outsideCutPath
10
395.956397
20
250.850375
11
395.956397
21
261.105612
0
LINE
8
bottom_outsideCutPath
10
395.956397
20
261.105612
11
391.130403
21
261.105612
0
LINE
8
bottom_outsideCutPath
10
391.130403
20
261.105612
11
391.130403
21
271.360955
0
LINE
8
bottom_outsideCutPath
10
391.130403
20
271.360955
11
395.956397
21
271.360955
0
LINE
8
bottom_outsideCutPath
10
395.956397
20
271.360955
11
395.956397
21
281.616192
0
LINE
8
bottom_outsideCutPath
10
395.956397
20
281.616192
11
391.130403
21
281.616192
0
LINE
8
bottom_outsideCutPath
10
391.130403
20
281.616192
11
391.130403
21
291.871376
0
LINE
8
bottom_outsideCutPath
10
391.130403
20
291.871376
11
395.956397
21
291.871376
0
LINE
8
bottom_outsideCutPath
10
395.956397
20
291.871376
11
395.956397
21
302.126613
0
LINE
8
bottom_outsideCutPath
10
395.956397
20
302.126613
11
391.130403
21
302.126613
0
LINE
8
bottom_outsideCutPath
10
391.130403
20
302.126613
11
391.130403
21
312.381797
0
LINE
8
bottom_outsideCutPath
10
391.130403
20
312.381797
11
395.956397
21
312.381797
0
LINE
8
bottom_outsideCutPath
10
395.956397
20
312.381797
11
395.956397
21
322.637034
0
LINE
8
bottom_outsideCutPath
10
395.956397
20
322.637034
11
391.130403
21
322.637034
0
LINE
8
bottom_outsideCutPath
10
391.130403
20
322.637034
11
391.130403
21
332.892271
0
LINE
8
bottom_outsideCutPath
10
391.130403
20
332.892271
11
391.130403
21
334.477917
0
LINE
8
bottom_outsideCutPath
10
391.130403
20
334.477917
11
386.277951
21
334.477917
0
LINE
8
bottom_outsideCutPath
10
386.277951
20
334.477917
11
386.277951
21
339.303911
0
LINE
8
bottom_outsideCutPath
10
386.277951
20
339.303911
11
376.022714
21
339.303911
0
LINE
8
bottom_outsideCutPath
10
376.022714
20
339.303911
11
376.022714
21
334.477917
0
LINE
8
bottom_outsideCutPath
10
376.022714
20
334.477917
11
365.767477
21
334.477917
0
LINE
8
bottom_outsideCutPath
10
365.767477
20
334.477917
11
365.767477
21
339.303911
0
LINE
8
bottom_outsideCutPath
10
365.767477
20
339.303911
11
355.512240
21
339.303911
0
LINE
8
bottom_outsideCutPath
10
355.512240
20
339.303911
11
355.512240
21
334.477917
0
LINE
8
bottom_outsideCutPath
10
355.512240
20
334.477917
11
345.257003
21
334.477917
0
LINE
8
bottom_outsideCutPath
10
345.257003
20
334.477917
11
345.257003
21
339.303911
0
LINE
8
bottom_outsideCutPath
10
345.257003
20
339.303911
11
335.001765
21
339.303911
0
LINE
8
bottom_outsideCutPath
10
335.001765
20
339.303911
11
335.001765
21
334.477917
0
LINE
8
bottom_outsideCutPath
10
335.001765
20
334.477917
11
324.746528
21
334.477917
0
LINE
8
bottom_outsideCutPath
10
324.746528
20
334.477917
11
324.746528
21
339.303911
0
LINE
8
bottom_outsideCutPath
10
324.746528
20
339.303911
11
314.491291
21
339.303911
0
LINE
8
bottom_outsideCutPath
10
314.491291
20
339.303911
11
314.491291
21
334.477917
0
LINE
8
bottom_outsideCutPath
10
314.491291
20
334.477917
11
304.236054
21
334.477917
0
LINE
8
bottom_outsideCutPath
10
304.236054
20
334.477917
11
304.236054
21
339.303911
0
LINE
8
bottom_outsideCutPath
10
304.236054
20
339.303911
11
293.980817
21
339.303911
0
LINE
8
bottom_outsideCutPath
10
293.980817
20
339.303911
11
293.980817
21
334.477917
0
LINE
8
bottom_outsideCutPath
10
293.980817
20
334.477917
11
289.128365
21
334.477917
0
LINE
8
bottom_outsideCutPath
10
30.833672
20
104.638671
11
63.318985
21
104.638671
0
LINE
8
bottom_outsideCutPath
10
63.318985
20
104.638671
11
63.318985
21
91.960571
0
LINE
8
bottom_outsideCutPath
10
63.318985
20
91.960571
11
30.833672
21
91.960571
0
LINE
8
bottom_outsideCutPath
10
30.833672
20
91.960571
11
30.833672
21
104.638671
0
LINE
8
bottom_outsideCutPath
10
297.866933
20
200.679612
11
297.730551
21
200.004036
0
LINE
8
bottom_outsideCutPath
10
297.730551
20
200.004036
11
297.358619
21
199.452337
0
LINE
8
bottom_outsideCutPath
10
297.358619
20
199.452337
11
296.806961
21
199.080344
0
LINE
8
bottom_outsideCutPath
10
296.806961
20
199.080344
11
296.131401
21
198.943887
0
LINE
8
bottom_outsideCutPath
10
296.131401
20
198.943887
11
295.455811
21
199.080188
0
LINE
8
bottom_outsideCutPath
10
295.455811
20
199.080188
11
294.904070
21
199.452052
0
LINE
8
bottom_outsideCutPath
10
294.904070
20
199.452052
11
294.532011
21
200.003663
0
LINE
8
bottom_outsideCutPath
10
294.532011
20
200.003663
11
294.395472
21
200.679204
0
LINE
8
bottom_outsideCutPath
10
294.395472
20
200.679204
11
294.531694
21
201.354809
0
LINE
8
bottom_outsideCutPath
10
294.531694
20
201.354809
11
294.903492
21
201.906593
0
LINE
8
bottom_outsideCutPath
10
294.903492
20
201.906593
11
295.455057
21
202.278717
0
LINE
8
bottom_outsideCutPath
10
295.455057
20
202.278717
11
296.130580
21
202.415337
0
LINE
8
bottom_outsideCutPath
10
296.130580
20
202.415337
11
296.806207
21
202.279199
0
LINE
8
bottom_outsideCutPath
10
296.806207
20
202.279199
11
297.358041
21
201.907465
0
LINE
8
bottom_outsideCutPath
10
297.358041
20
201.907465
11
297.730233
21
201.355940
0
LINE
8
bottom_outsideCutPath
10
297.730233
20
201.355940
11
297.866933
21
200.680427
0
LINE
8
bottom_outsideCutPath
10
297.866933
20
200.680427
11
297.866933
21
200.679612
0
LINE
8
bottom_outsideCutPath
10
297.866562
20
235.635852
11
297.730183
21
234.960283
0
LINE
8
bottom_outsideCutPath
10
297.730183
20
234.960283
11
297.358258
21
234.408586
0
LINE
8
bottom_outsideCutPath
10
297.358258
20
234.408586
11
296.806609
21
234.036592
0
LINE
8
bottom_outsideCutPath
10
296.806609
20
234.036592
11
296.131057
21
233.900127
0
LINE
8
bottom_outsideCutPath
10
296.131057
20
233.900127
11
295.455467
21
234.036429
0
LINE
8
bottom_outsideCutPath
10
295.455467
20
234.036429
11
294.903726
21
234.408293
0
LINE
8
bottom_outsideCutPath
10
294.903726
20
234.408293
11
294.531667
21
234.959903
0
LINE
8
bottom_outsideCutPath
10
294.531667
20
234.959903
11
294.395128
21
235.635445
0
LINE
8
bottom_outsideCutPath
10
294.395128
20
235.635445
11
294.531350
21
236.311049
0
LINE
8
bottom_outsideCutPath
10
294.531350
20
236.311049
11
294.903148
21
236.862834
0
LINE
8
bottom_outsideCutPath
10
294.903148
20
236.862834
11
295.454713
21
237.234957
0
LINE
8
bottom_outsideCutPath
10
295.454713
20
237.234957
11
296.130237
21
237.371578
0
LINE
8
bottom_outsideCutPath
10
296.130237
20
237.371578
11
296.805854
21
237.235431
0
LINE
8
bottom_outsideCutPath
10
296.805854
20
237.235431
11
297.357680
21
236.863696
0
LINE
8
bottom_outsideCutPath
10
297.357680
20
236.863696
11
297.729865
21
236.312174
0
LINE
8
bottom_outsideCutPath
10
297.729865
20
236.312174
11
297.866562
21
235.636667
0
LINE
8
bottom_outsideCutPath
10
297.866562
20
235.636667
11
297.866562
21
235.635852
0
LINE
8
bottom_outsideCutPath
10
332.771516
20
235.635852
11
332.635136
21
234.960283
0
LINE
8
bottom_outsideCutPath
10
332.635136
20
234.960283
11
332.263212
21
234.408586
0
LINE
8
bottom_outsideCutPath
10
332.263212
20
234.408586
11
331.711562
21
234.036592
0
LINE
8
bottom_outsideCutPath
10
331.711562
20
234.036592
11
331.036010
21
233.900127
0
LINE
8
bottom_outsideCutPath
10
331.036010
20
233.900127
11
330.360421
21
234.036429
0
LINE
8
bottom_outsideCutPath
10
330.360421
20
234.036429
11
329.808679
21
234.408293
0
LINE
8
bottom_outsideCutPath
10
329.808679
20
234.408293
11
329.436621
21
234.959903
0
LINE
8
bottom_outsideCutPath
10
329.436621
20
234.959903
11
329.300081
21
235.635445
0
LINE
8
bottom_outsideCutPath
10
329.300081
20
235.635445
11
329.436303
21
236.311049
0
LINE
8
bottom_outsideCutPath
10
329.436303
20
236.311049
11
329.808101
21
236.862834
0
LINE
8
bottom_outsideCutPath
10
329.808101
20
236.862834
11
330.359666
21
237.234957
0
LINE
8
bottom_outsideCutPath
10
330.359666
20
237.234957
11
331.035190
21
237.371578
0
LINE
8
bottom_outsideCutPath
10
331.035190
20
237.371578
11
331.710808
21
237.235431
0
LINE
8
bottom_outsideCutPath
10
331.710808
20
237.235431
11
332.262633
21
236.863696
0
LINE
8
bottom_outsideCutPath
10
332.262633
20
236.863696
11
332.634819
21
236.312174
0
LINE
8
bottom_outsideCutPath
10
332.634819
20
236.312174
11
332.771516
21
235.636667
0
LINE
8
bottom_outsideCutPath
10
332.771516
20
235.636667
11
332.771516
21
235.635852
0
LINE
8
bottom_outsideCutPath
10
332.771516
20
200.679088
11
332.635136
21
200.003518
0
LINE
8
bottom_outsideCutPath
10
332.635136
20
200.003518
11
332.263212
21
199.451822
0
LINE
8
bottom_outsideCutPath
10
332.263212
20
199.451822
11
331.711562
21
199.079828
0
LINE
8
bottom_outsideCutPath
10
331.711562
20
199.079828
11
331.036010
21
198.943363
0
LINE
8
bottom_outsideCutPath
10
331.036010
20
198.943363
11
330.360422
21
199.079664
0
LINE
8
bottom_outsideCutPath
10
330.360422
20
199.079664
11
329.808680
21
199.451528
0
LINE
8
bottom_outsideCutPath
10
329.808680
20
199.451528
11
329.436622
21
200.003137
0
LINE
8
bottom_outsideCutPath
10
329.436622
20
200.003137
11
329.300081
21
200.678678
0
LINE
8
bottom_outsideCutPath
10
329.300081
20
200.678678
11
329.436303
21
201.354282
0
LINE
8
bottom_outsideCutPath
10
329.436303
20
201.354282
11
329.808101
21
201.906067
0
LINE
8
bottom_outsideCutPath
10
329.808101
20
201.906067
11
330.359666
21
202.278190
0
LINE
8
bottom_outsideCutPath
10
330.359666
20
202.278190
11
331.035190
21
202.414811
0
LINE
8
bottom_outsideCutPath
10
331.035190
20
202.414811
11
331.710807
21
202.278665
0
LINE
8
bottom_outsideCutPath
10
331.710807
20
202.278665
11
332.262633
21
201.906930
0
LINE
8
bottom_outsideCutPath
10
332.262633
20
201.906930
11
332.634818
21
201.355409
0
LINE
8
bottom_outsideCutPath
10
332.634818
20
201.355409
11
332.771516
21
200.679903
0
LINE
8
bottom_outsideCutPath
10
332.771516
20
200.679903
11
332.771516
21
200.679088
0
LINE
8
bottom_outsideCutPath
10
310.619119
20
153.059292
11
370.581445
21
153.059292
0
LINE
8
bottom_outsideCutPath
10
370.581445
20
153.059292
11
370.581445
21
96.596962
0
LINE
8
bottom_outsideCutPath
10
370.581445
20
96.596962
11
310.619119
21
96.596962
0
LINE
8
bottom_outsideCutPath
10
310.619119
20
96.596962
11
310.619119
21
153.059292
0
LINE
8
bottom_outsideCutPath
10
311.242106
20
154.017677
11
311.037116
21
153.522738
0
LINE
8
bottom_outsideCutPath
10
311.037116
20
153.522738
11
310.542205
21
153.317678
0
LINE
8
bottom_outsideCutPath
10
310.542205
20
153.317678
11
310.047232
21
153.522614
0
LINE
8
bottom_outsideCutPath
10
310.047232
20
153.522614
11
309.842118
21
154.017513
0
LINE
8
bottom_outsideCutPath
10
309.842118
20
154.017513
11
310.046994
21
154.512503
0
LINE
8
bottom_outsideCutPath
10
310.046994
20
154.512503
11
310.541861
21
154.717677
0
LINE
8
bottom_outsideCutPath
10
310.541861
20
154.717677
11
311.036878
21
154.512855
0
LINE
8
bottom_outsideCutPath
10
311.036878
20
154.512855
11
311.242106
21
154.018005
0
LINE
8
bottom_outsideCutPath
10
311.242106
20
154.018005
11
311.242106
21
154.017677
0
LINE
8
bottom_outsideCutPath
10
311.242106
20
95.590761
11
311.037116
21
95.095821
0
LINE
8
bottom_outsideCutPath
10
311.037116
20
95.095821
11
310.542205
21
94.890761
0
LINE
8
bottom_outsideCutPath
10
310.542205
20
94.890761
11
310.047232
21
95.095697
0
LINE
8
bottom_outsideCutPath
10
310.047232
20
95.095697
11
309.842118
21
95.590597
0
LINE
8
bottom_outsideCutPath
10
309.842118
20
95.590597
11
310.046994
21
96.085586
0
LINE
8
bottom_outsideCutPath
10
310.046994
20
96.085586
11
310.541861
21
96.290760
0
LINE
8
bottom_outsideCutPath
10
310.541861
20
96.290760
11
311.036877
21
96.085939
0
LINE
8
bottom_outsideCutPath
10
311.036877
20
96.085939
11
311.242106
21
95.591091
0
LINE
8
bottom_outsideCutPath
10
311.242106
20
95.591091
11
311.242106
21
95.590761
0
LINE
8
bottom_outsideCutPath
10
371.249028
20
95.590761
11
371.044038
21
95.095821
0
LINE
8
bottom_outsideCutPath
10
371.044038
20
95.095821
11
370.549126
21
94.890761
0
LINE
8
bottom_outsideCutPath
10
370.549126
20
94.890761
11
370.054154
21
95.095697
0
LINE
8
bottom_outsideCutPath
10
370.054154
20
95.095697
11
369.849040
21
95.590597
0
LINE
8
bottom_outsideCutPath
10
369.849040
20
95.590597
11
370.053916
21
96.085586
0
LINE
8
bottom_outsideCutPath
10
370.053916
20
96.085586
11
370.548783
21
96.290760
0
LINE
8
bottom_outsideCutPath
10
370.548783
20
96.290760
11
371.043799
21
96.085939
0
LINE
8
bottom_outsideCutPath
10
371.043799
20
96.085939
11
371.249028
21
95.591091
0
LINE
8
bottom_outsideCutPath
10
371.249028
20
95.591091
11
371.249028
21
95.590761
0
LINE
8
bottom_outsideCutPath
10
371.249028
20
154.017677
11
371.044038
21
153.522738
0
LINE
8
bottom_outsideCutPath
10
371.044038
20
153.522738
11
370.549126
21
153.317678
0
LINE
8
bottom_outsideCutPath
10
370.549126
20
153.317678
11
370.054154
21
153.522614
0
LINE
8
bottom_outsideCutPath
10
370.054154
20
153.522614
11
369.849040
21
154.017513
0
LINE
8
bottom_outsideCutPath
10
369.849040
20
154.017513
11
370.053916
21
154.512503
0
LINE
8
bottom_outsideCutPath
10
370.053916
20
154.512503
11
370.548783
21
154.717677
0
LINE
8
bottom_outsideCutPath
10
370.548783
20
154.717677
11
371.043800
21
154.512855
0
LINE
8
bottom_outsideCutPath
10
371.043800
20
154.512855
11
371.249028
21
154.018005
0
LINE
8
bottom_outsideCutPath
10
371.249028
20
154.018005
11
371.249028
21
154.017677
0
LINE
8
bottom_outsideCutPath
10
384.630049
20
13.268705
11
384.445404
21
12.354049
0
LINE
8
bottom_outsideCutPath
10
384.445404
20
12.354049
11
383.941853
21
11.607106
0
LINE
8
bottom_outsideCutPath
10
383.941853
20
11.607106
11
383.194973
21
11.103463
0
LINE
8
bottom_outsideCutPath
10
383.194973
20
11.103463
11
382.280340
21
10.918705
0
LINE
8
bottom_outsideCutPath
10
382.280340
20
10.918705
11
381.365663
21
11.103247
0
LINE
8
bottom_outsideCutPath
10
381.365663
20
11.103247
11
380.618664
21
11.606713
0
LINE
8
bottom_outsideCutPath
10
380.618664
20
11.606713
11
380.114936
21
12.353537
0
LINE
8
bottom_outsideCutPath
10
380.114936
20
12.353537
11
379.930076
21
13.268149
0
LINE
8
bottom_outsideCutPath
10
379.930076
20
13.268149
11
380.114504
21
14.182849
0
LINE
8
bottom_outsideCutPath
10
380.114504
20
14.182849
11
380.617878
21
14.929911
0
LINE
8
bottom_outsideCutPath
10
380.617878
20
14.929911
11
381.364639
21
15.433731
0
LINE
8
bottom_outsideCutPath
10
381.364639
20
15.433731
11
382.279229
21
15.618705
0
LINE
8
bottom_outsideCutPath
10
382.279229
20
15.618705
11
383.193949
21
15.434380
0
LINE
8
bottom_outsideCutPath
10
383.193949
20
15.434380
11
383.941068
21
14.931089
0
LINE
8
bottom_outsideCutPath
10
383.941068
20
14.931089
11
384.444972
21
14.184385
0
LINE
8
bottom_outsideCutPath
10
384.444972
20
14.184385
11
384.630049
21
13.269816
0
LINE
8
bottom_outsideCutPath
10
384.630049
20
13.269816
11
384.630049
21
13.268705
0
LINE
8
bottom_outsideCutPath
10
339.491448
20
82.352649
11
341.491445
21
82.352649
0
LINE
8
bottom_outsideCutPath
10
341.491445
20
82.352649
11
341.491445
21
18.852729
0
LINE
8
bottom_outsideCutPath
10
341.491445
20
18.852729
11
339.491448
21
18.852729
0
LINE
8
bottom_outsideCutPath
10
339.491448
20
18.852729
11
339.491448
21
82.352649
0
LINE
8
bottom_outsideCutPath
10
335.484418
20
79.184434
11
337.497736
21
79.184434
0
LINE
8
bottom_outsideCutPath
10
337.497736
20
79.184434
11
337.497736
21
22.286186
0
LINE
8
bottom_outsideCutPath
10
337.497736
20
22.286186
11
335.484418
21
22.286186
0
LINE
8
bottom_outsideCutPath
10
335.484418
20
22.286186
11
335.484418
21
79.184434
0
LINE
8
bottom_outsideCutPath
10
331.477599
20
76.016254
11
333.504543
21
76.016254
0
LINE
8
bottom_outsideCutPath
10
333.504543
20
76.016254
11
333.504543
21
25.454371
0
LINE
8
bottom_outsideCutPath
10
333.504543
20
25.454371
11
331.477599
21
25.454371
0
LINE
8
bottom_outsideCutPath
10
331.477599
20
25.454371
11
331.477599
21
76.016254
0
LINE
8
bottom_outsideCutPath
10
327.470305
20
72.848558
11
329.511860
21
72.848558
0
LINE
8
bottom_outsideCutPath
10
329.511860
20
72.848558
11
329.511860
21
28.622054
0
LINE
8
bottom_outsideCutPath
10
329.511860
20
28.622054
11
327.470305
21
28.622054
0
LINE
8
bottom_outsideCutPath
10
327.470305
20
28.622054
11
327.470305
21
72.848558
0
LINE
8
bottom_outsideCutPath
10
323.462401
20
69.681476
11
325.519776
21
69.681476
0
LINE
8
bottom_outsideCutPath
10
325.519776
20
69.681476
11
325.519776
21
31.789145
0
LINE
8
bottom_outsideCutPath
10
325.519776
20
31.789145
11
323.462401
21
31.789145
0
LINE
8
bottom_outsideCutPath
10
323.462401
20
31.789145
11
323.462401
21
69.681476
0
LINE
8
bottom_outsideCutPath
10
355.462339
20
69.681476
11
357.519714
21
69.681476
0
LINE
8
bottom_outsideCutPath
10
357.519714
20
69.681476
11
357.519714
21
31.789145
0
LINE
8
bottom_outsideCutPath
10
357.519714
20
31.789145
11
355.462339
21
31.789145
0
LINE
8
bottom_outsideCutPath
10
355.462339
20
31.789145
11
355.462339
21
69.681476
0
LINE
8
bottom_outsideCutPath
10
351.470284
20
72.848558
11
353.511840
21
72.848558
0
LINE
8
bottom_outsideCutPath
10
353.511840
20
72.848558
11
353.511840
21
28.622054
0
LINE
8
bottom_outsideCutPath
10
353.511840
20
28.622054
11
351.470284
21
28.622054
0
LINE
8
bottom_outsideCutPath
10
351.470284
20
28.622054
11
351.470284
21
72.848558
0
LINE
8
bottom_outsideCutPath
10
347.477568
20
76.016254
11
349.504512
21
76.016254
0
LINE
8
bottom_outsideCutPath
10
349.504512
20
76.016254
11
349.504512
21
25.454371
0
LINE
8
bottom_outsideCutPath
10
349.504512
20
25.454371
11
347.477568
21
25.454371
0
LINE
8
bottom_outsideCutPath
10
347.477568
20
25.454371
11
347.477568
21
76.016254
0
LINE
8
bottom_outsideCutPath
10
343.484402
20
79.184434
11
345.497720
21
79.184434
0
LINE
8
bottom_outsideCutPath
10
345.497720
20
79.184434
11
345.497720
21
22.286186
0
LINE
8
bottom_outsideCutPath
10
345.497720
20
22.286186
11
343.484402
21
22.286186
0
LINE
8
bottom_outsideCutPath
10
343.484402
20
22.286186
11
343.484402
21
79.184434
 0 
ENDSEC
 0 
EOF